<svg id="Layer_1" data-name="Layer 1" xmlns="http://www.w3.org/2000/svg" viewBox="0 0 744.66 594.92"><defs><style>.cls-1{fill:#f7f7f7;}.cls-12,.cls-14,.cls-2,.cls-3,.cls-4{fill:none;stroke-linecap:round;}.cls-14,.cls-2,.cls-3{stroke:#000;}.cls-2,.cls-3,.cls-4{stroke-miterlimit:10;}.cls-2{stroke-width:4px;}.cls-14,.cls-3{stroke-width:2px;}.cls-4{stroke:#1f161e;}.cls-5{fill:#fbdc8e;}.cls-6{fill:#969696;}.cls-7{fill:#ab8de5;}.cls-8{fill:#78e5e1;}.cls-9{fill:#d8d8d8;}.cls-10{fill:#64ccc4;}.cls-11,.cls-13{fill:#fff;}.cls-12{stroke:#969696;stroke-width:0.82px;}.cls-12,.cls-14{stroke-linejoin:round;}.cls-13{isolation:isolate;font-size:7.3px;font-family:Arial-BoldMT, Arial;font-weight:700;}.cls-15{fill:#1f161e;}.cls-16{fill:#55b79d;}.cls-17{fill:#f8cdba;}.cls-18{fill:#fa9e9f;}</style></defs><title>landing-page</title><path class="cls-1" d="M297.73,111.31A154.84,154.84,0,0,1,282.86,121c-33.3,18.92-151.23,85.27-181.2,93,0,0-74.75,22.63-51.6,96.29A114,114,0,0,0,107.8,377.6c72,36.3,255.84,130.2,299.8,165.06a73.37,73.37,0,0,0,26,13.46c22,6.07,59.2,7,101.09-31.12,0,0,156.87-137.16,65.71-274.52a197,197,0,0,0-55.26-54.81L412,107.23c-.2-.13-.4-.27-.59-.42C407.55,103.86,357.57,67.52,297.73,111.31Z"/><g id="Layer_2-2" data-name="Layer 2-2"><ellipse cx="412.62" cy="476.96" rx="63.11" ry="13.95"/><line class="cls-2" x1="448.07" y1="587.91" x2="412.62" y2="476.96"/><line class="cls-2" x1="377.17" y1="587.91" x2="412.62" y2="476.96"/><line class="cls-3" x1="396.91" y1="526.14" x2="436.43" y2="551.48"/><line class="cls-3" x1="388.96" y1="551.48" x2="428.49" y2="526.14"/><path class="cls-4" d="M351.41,386.38c-.81-7.37-.74-24.6-.9-29.52"/><path d="M566.2,139v21.85a6.32,6.32,0,0,1-6.33,6.33h0a6.33,6.33,0,0,1-6.33-6.33V139a6.33,6.33,0,0,1,6.33-6.33h0A6.32,6.32,0,0,1,566.2,139Z"/><circle class="cls-5" cx="559.87" cy="191.17" r="12.7"/><path class="cls-5" d="M161.64,298.72v-3.56a2.39,2.39,0,0,0-2.38-2.38H136.87a2.37,2.37,0,0,0-1.68.7l-7.58,7.58a2.35,2.35,0,0,0-.7,1.68v36.88a2.4,2.4,0,0,0,2.38,2.38h6"/><path d="M677.46,540.14C641,547,637.6,433.6,656.6,430,679.78,425.59,711.9,533.6,677.46,540.14Z"/><path class="cls-5" d="M690.56,531.46c-28.95-16.38,34.34-96,49.46-87.46C758.43,454.44,717.91,547,690.56,531.46Z"/><path class="cls-6" d="M656.75,589.28,652.14,546c0-.22,0-.44,0-.67a6.24,6.24,0,0,1,6.24-6.25H706a6.12,6.12,0,0,1,.74,0,6.26,6.26,0,0,1,5.47,7l-4.82,43.28a6.25,6.25,0,0,1-6.21,5.56H663A6.26,6.26,0,0,1,656.75,589.28Z"/><path class="cls-7" d="M670.2,469.51c-27.71,8.06-38.8-79.47-24.33-83.67C663.48,380.72,696.36,461.91,670.2,469.51Z"/><path class="cls-5" d="M671.91,513.48C652.69,530,612,464.1,622,455.48,634.22,445,690.06,497.91,671.91,513.48Z"/><path class="cls-8" d="M682,533.24c-41.49,0-21.66-138.3,0-138.3C708.33,394.94,721.14,533.24,682,533.24Z"/><rect class="cls-9" x="639.9" y="529.72" width="84.3" height="15.48" rx="4.05"/><path class="cls-9" d="M143.48,299.51l-7.4,7.4a2.69,2.69,0,0,0-.78,1.9v36.4A2.7,2.7,0,0,0,138,347.9h29.39a2.7,2.7,0,0,0,2.68-2.69v-43.8h0a2.68,2.68,0,0,0-2.68-2.68h-22A2.68,2.68,0,0,0,143.48,299.51Z"/><path class="cls-6" d="M144.26,298.72v7.54a1.5,1.5,0,0,1-1.5,1.5h-7.47"/><path class="cls-10" d="M135.86,292.78v7.54a1.52,1.52,0,0,1-1.51,1.51h-7.47"/><rect class="cls-8" x="166.99" y="248.65" width="57.62" height="22.9" rx="3.03"/><polygon class="cls-8" points="202.75 266.23 188.87 266.23 195.81 287.25 202.75 266.23"/><polygon class="cls-11" points="203.75 264.82 215.38 264.82 209.56 254.75 203.75 264.82"/><polygon class="cls-11" points="187.87 254.75 176.23 254.75 182.05 264.82 187.87 254.75"/><circle class="cls-11" cx="195.81" cy="259.79" r="4.37"/><rect class="cls-9" x="197.65" y="200.12" width="39.14" height="25.76" rx="2.65"/><line class="cls-12" x1="217.22" y1="213" x2="235.56" y2="200.93"/><line class="cls-12" x1="217.22" y1="213" x2="197.65" y2="200.12"/><circle class="cls-5" cx="197.65" cy="200.12" r="5.6"/><text class="cls-13" transform="matrix(-1, 0, 0, 1, 199.27, 202.28)">1</text><rect class="cls-9" y="215.83" width="148.46" height="3.22" rx="1.23"/><rect class="cls-6" x="83" y="151.89" width="13.99" height="63.94" rx="2.56"/><rect class="cls-9" x="76" y="166.88" width="7" height="48.95" rx="2.13"/><rect class="cls-6" x="69" y="166.88" width="7" height="48.95" rx="2.06"/><rect class="cls-9" x="32.48" y="189.67" width="48.95" height="7" rx="2.2" transform="translate(-142.36 164.33) rotate(-65.34)"/><circle class="cls-9" cx="90" cy="195.74" r="3.91"/><path class="cls-9" d="M94.48,202.93h0a.94.94,0,0,1-.94.94H86.46a.94.94,0,0,1-.94-.94h0a.94.94,0,0,1,.94-.94h7.08A.94.94,0,0,1,94.48,202.93Z"/><path class="cls-9" d="M94.48,207.74h0a.94.94,0,0,1-.94.94H86.46a.94.94,0,0,1-.94-.94h0a.94.94,0,0,1,.94-.94h7.08A.94.94,0,0,1,94.48,207.74Z"/><path class="cls-6" d="M166.12,304.18h0a.94.94,0,0,1-.94.94H158.1a.94.94,0,0,1-.94-.94h0a.94.94,0,0,1,.94-.94h7.08A.94.94,0,0,1,166.12,304.18Z"/><path class="cls-6" d="M166.12,308.7h0a.94.94,0,0,1-.94.94H158.1a.94.94,0,0,1-.94-.94h0a.94.94,0,0,1,.94-.94h7.08A.94.94,0,0,1,166.12,308.7Z"/><path class="cls-6" d="M166.53,316.43h0a.94.94,0,0,1-.94.94H139.74a.94.94,0,0,1-.94-.94h0a.94.94,0,0,1,.94-.94h25.85A.94.94,0,0,1,166.53,316.43Z"/><path class="cls-6" d="M166.53,320.87h0a.94.94,0,0,1-.94.94H139.74a.94.94,0,0,1-.94-.94h0a.94.94,0,0,1,.94-.94h25.85A.94.94,0,0,1,166.53,320.87Z"/><path class="cls-6" d="M166.53,325.31h0a.94.94,0,0,1-.94.94H139.74a.94.94,0,0,1-.94-.94h0a.94.94,0,0,1,.94-.94h25.85A.94.94,0,0,1,166.53,325.31Z"/><rect class="cls-6" x="78.77" y="173.54" width="1.46" height="35.62" rx="0.73"/><path class="cls-9" d="M118.23,219.93h0a2.48,2.48,0,0,1-2.49,2.49h-6.26a2.49,2.49,0,0,1-2.49-2.49h0a2.49,2.49,0,0,1,2.49-2.49h6.26A2.48,2.48,0,0,1,118.23,219.93Z"/><path class="cls-9" d="M41.47,219.93h0A2.48,2.48,0,0,1,39,222.42H32.72a2.49,2.49,0,0,1-2.49-2.49h0a2.49,2.49,0,0,1,2.49-2.49H39A2.48,2.48,0,0,1,41.47,219.93Z"/><rect class="cls-9" x="257.01" y="222.31" width="60.51" height="41.81" rx="12"/><rect class="cls-7" x="295.9" y="229.04" width="9.1" height="28.35"/><rect class="cls-7" x="282.71" y="247.9" width="9.1" height="9.5"/><rect class="cls-7" x="269.53" y="239.9" width="9.1" height="17.49"/><path class="cls-7" d="M559.86,152.88a38.29,38.29,0,0,0-38.29,38.29h76.6a38.28,38.28,0,0,0-38.3-38.28Z"/><line class="cls-14" x1="559.87" y1="1" x2="559.87" y2="139.92"/><path class="cls-15" d="M240.09,574.68c.81,3.12-1.4,9-3,10.12s-13.39,3.46-14.6,4.29-.38,3.73,1,5.12,31.83.55,34.6-.83,1.38-16.33,1.38-18.7"/><path class="cls-8" d="M351.5,387.89c12.23-.72,26.37-2.18,26.37-2.18l64.47-4.43s55-10.1,55-29.57-3.74-75.07-15.74-87.07c-3.87-3.88-19.11-9.74-70.49-9.74-8.61,0-56.87,4.24-59.31,6.67C341.42,272,334.11,341.83,333.37,373.1l17.14,6.15S351.23,384.14,351.5,387.89Z"/><path class="cls-15" d="M256.32,480.24l-34.76,74.81H195.81c0-3.3,32-146.67,42.14-156.67s56.8-2.39,61.49-1"/><path class="cls-16" d="M279.49,393.49c-27.77,18.68-43.16,183.4-43.16,183.4h24.83c.25-2.46,54.18-112.56,57.11-117.46,4.41,2.2,69.74,14.2,110.12,14.2,13,0,49.06-.93,49.06-45,0-31.87-7-38.15-8.2-44C448.54,381.07,288.51,387.49,279.49,393.49Z"/><path class="cls-17" d="M296.84,369.11c0,4.46,7.52,7.74,11.7,7.74,6,0,11.29-5.23,21.43-5.23,4.06,0,7.31,7.84,21.31,13.48l-.77-28.24c-14.76-2.9-20.14-4.45-26.66-4.45C315.77,352.41,296.84,359.77,296.84,369.11Z"/><path class="cls-15" d="M200.72,553.07c.81,3.12-1.4,9-3,10.12s-13.39,3.47-14.6,4.3-.38,3.74,1,5.12,31.83.56,34.6-.83,1.38-16.33,1.38-18.71"/><path class="cls-17" d="M402,230.89h21.89v30.66c0,3.88-21.89,3.77-21.89,0Z"/><path class="cls-15" d="M423.91,233.15v16.64c0-3.15-12.76-8.79-14.76-8.79C409.15,241,420.73,233.15,423.91,233.15Z"/><circle class="cls-17" cx="404.92" cy="215.8" r="26.5"/><path class="cls-15" d="M383.51,200.21a36.64,36.64,0,0,0-3,5.19c-3.4,0-12.53-7.05-12.53-14.66,0-3.5,2.62-8.62,10.41-8.62a16.78,16.78,0,0,1,11.3,4.31c-1.37-1.08-4.07-5.89-4.07-11.55,0-3.55,3.2-6.34,10-6.34,5.95,0,20.95,5.2,20.95,16.59.65-.51,2.27-1.71,7.43-1.71,5.66,0,13.66,7.72,13.66,20.25,0,8.7-3.83,11.71-3.83,14.84s1.47,4.44,1.47,8.13c0,3.19-2.55,5.28-3.84,5.28-2.5,0-4-.87-4-2.2,0-1.95-1.77-8-1.77-9.56-.82-9.11-4.89-13.66-8.44-15.66-6.56-3.74-15.78-1.9-22.11-1.9-7.43,0-14.29-2.39-17.57-7.6"/><circle class="cls-17" cx="424.87" cy="219.3" r="5.65"/><ellipse class="cls-18" cx="378.16" cy="218.38" rx="4.38" ry="2.28"/><ellipse class="cls-18" cx="405.71" cy="218.38" rx="4.38" ry="2.28"/><path class="cls-4" d="M388.27,221.72c-4.41-2-.23-6.9.59-8.07"/><path class="cls-4" d="M401.52,224.34c-1.07,1.47-3.1,3.11-4.42,3.11"/><path class="cls-4" d="M350.51,356.86c0-13,9.65-54,11.65-58.24"/><path class="cls-17" d="M446.89,348.43c.46,1.09,4,13.59,4,19,0,3-3,3.75-4.75,3.75s-74.28-17.52-92.45-17.52c-8.07,0-27,7.36-27,16.71,0,4.45,7.52,7.74,11.69,7.74,6,0,11.29-5.24,21.44-5.24,11.49,0,75.95,35,118.59,35,18.5,0,18.93-13.37,18.93-59.46Z"/><path class="cls-4" d="M448.07,352.41c-1.1-4.42-10.61-40.69-11.83-44.2"/><path class="cls-6" d="M65.3,586.14,116.5,391.4a5.12,5.12,0,0,1,6.25-3.65h0A5.11,5.11,0,0,1,126.4,394L75.2,588.75A5.11,5.11,0,0,1,69,592.4h0A5.13,5.13,0,0,1,65.3,586.14Z"/><path class="cls-6" d="M136.82,391.41,188,586.15a5.11,5.11,0,0,1-3.65,6.25h0a5.12,5.12,0,0,1-6.25-3.64L126.91,394a5.12,5.12,0,0,1,3.65-6.25h0A5.12,5.12,0,0,1,136.82,391.41Z"/><path class="cls-9" d="M207.46,391.41l51.2,194.74A5.11,5.11,0,0,1,255,592.4h0a5.11,5.11,0,0,1-6.25-3.65L197.56,394a5.12,5.12,0,0,1,3.65-6.25h0A5.11,5.11,0,0,1,207.46,391.41Z"/><path class="cls-9" d="M136.81,582.59l50.34-195.32a5.13,5.13,0,0,1,6.25-3.68h0a5.12,5.12,0,0,1,3.68,6.24L146.74,585.15a5.11,5.11,0,0,1-6.24,3.69h0A5.12,5.12,0,0,1,136.81,582.59Z"/><rect class="cls-6" x="511.41" y="384.29" width="10.24" height="211.6" rx="5.12" transform="translate(-107.64 147.44) rotate(-14.73)"/><path class="cls-6" d="M425.24,586.16l51.2-194.75a5.12,5.12,0,0,1,6.25-3.65h0a5.12,5.12,0,0,1,3.65,6.26l-51.2,194.74a5.12,5.12,0,0,1-6.25,3.65h0A5.12,5.12,0,0,1,425.24,586.16Z"/><rect class="cls-9" x="90.86" y="378.14" width="504.23" height="15.15" rx="4.53"/><rect class="cls-9" x="584.59" y="384.29" width="10.24" height="211.6" rx="5.12" transform="translate(-105.23 166.05) rotate(-14.73)"/><rect class="cls-9" x="423.17" y="484.97" width="211.6" height="10.24" rx="5.12" transform="translate(-79.51 877.06) rotate(-75.27)"/><path d="M208.67,324.12a6.79,6.79,0,0,1-.24-1.9,6.62,6.62,0,0,1,6.72-6.51h78.5a6.71,6.71,0,0,1,6.48,4.79l16.76,57.64H224.38Z"/><circle class="cls-11" cx="259.28" cy="346.92" r="5.66"/><rect x="305.9" y="374.09" width="64.91" height="4.05"/></g></svg>