<svg id="Layer_1" data-name="Layer 1" xmlns="http://www.w3.org/2000/svg" viewBox="0 0 744.66 594.92"><defs><style>.cls-1{fill:#e6e6e6;}.cls-2{fill:#3f3d56;}.cls-3{fill:#f2f2f2;}.cls-4{fill:#ff6584;}.cls-5{fill:#6c63ff;}.cls-6{opacity:0.2;}.cls-11,.cls-6{isolation:isolate;}.cls-7{fill:#fff;}.cls-8{fill:#ffb8b8;}.cls-9{fill:#2f2e41;}.cls-10{fill:#575a89;}.cls-11{opacity:0.1;}</style></defs><title>landing-page-012</title><ellipse class="cls-1" cx="534.85" cy="570.57" rx="124.13" ry="18.57"/><path class="cls-2" d="M0,0H658.24c0,301.17-244.15,545.31-545.31,545.31H0V0Z"/><circle class="cls-3" cx="485.03" cy="132.56" r="53.4"/><circle class="cls-4" cx="321" cy="24.22" r="4.58"/><circle class="cls-4" cx="469.77" cy="330.92" r="4.58"/><circle class="cls-3" cx="485.03" cy="24.22" r="4.58"/><circle class="cls-3" cx="549.12" cy="244.71" r="4.58"/><circle class="cls-3" cx="366.78" cy="147.82" r="4.58"/><circle class="cls-3" cx="124.93" cy="117.3" r="4.58"/><circle class="cls-5" cx="211.14" cy="307.27" r="155.64"/><circle class="cls-6" cx="204.28" cy="243.94" r="22.89"/><circle class="cls-6" cx="204.28" cy="397.29" r="39.67"/><circle class="cls-6" cx="89.08" cy="337.02" r="9.92"/><circle class="cls-6" cx="480.39" cy="105.01" r="5.27"/><circle class="cls-6" cx="256.85" cy="209.53" r="5.27"/><circle class="cls-6" cx="197.41" cy="314.13" r="6.87"/><circle class="cls-6" cx="467.55" cy="147.14" r="5.27"/><circle class="cls-6" cx="325.65" cy="276.83" r="5.27"/><circle class="cls-6" cx="514.8" cy="142.16" r="7.62"/><circle class="cls-6" cx="282.11" cy="330.6" r="7.62"/><circle class="cls-6" cx="115.01" cy="243.94" r="9.92"/><path class="cls-7" d="M244.86,397a435.77,435.77,0,0,1-49-2.83c-48.91-5.56-94-18.68-127-37-33.4-18.5-50.49-40.16-48.12-61,1.63-14.43,15.59-27.35,42.65-39.49a1.52,1.52,0,0,1,1.25,2.78c-26,11.67-39.36,23.79-40.87,37.06-2.22,19.53,14.32,40.12,46.57,58,32.65,18.09,77.36,31.08,125.88,36.6s95,2.87,130.87-7.44c35.44-10.18,56.17-26.53,58.39-46.06,1.5-13.21-5.78-27.22-21-40.51a1.52,1.52,0,1,1,2-2.3c16.06,14,23.69,28.9,22.07,43.15-2.36,20.84-23.88,38.11-60.57,48.65C304.05,393.48,275.53,397,244.86,397Z"/><polygon class="cls-8" points="484.23 535.73 485.31 545.46 475.58 544.38 475.58 532.49 484.23 535.73"/><polygon class="cls-8" points="585.88 535.73 584.8 545.46 594.53 544.38 594.53 532.49 585.88 535.73"/><path class="cls-9" d="M483.15,325.94l-4.32,111.39S464.77,520.59,468,522.75s0,14.06,0,14.06L486.4,539s0-8.65,4.32-11.89,44.34-155.72,44.34-155.72l41.09,147.07s-1.08,8.65,2.16,8.65,4.33,11.9,4.33,11.9H601v-11.9s5.41-1.08,2.17-9.73-15.14-191.41-15.14-191.41Z"/><path class="cls-9" d="M477.75,535.73s-5.41-3.24-7.57-1.08-19.47,23.79-19.47,23.79-23.79,15.14-2.16,19.46,37.85-16.22,38.93-18.38-1.08-19.46-2.16-17.3-4.33,1.08-5.41,0S477.75,535.73,477.75,535.73Z"/><path class="cls-9" d="M592.37,535.73s5.41-3.24,7.57-1.08,19.47,23.79,19.47,23.79,23.79,15.14,2.16,19.46-37.85-16.22-38.93-18.38,1.08-19.46,2.16-17.3,4.33,1.08,5.41,0S592.37,535.73,592.37,535.73Z"/><circle class="cls-8" cx="548.58" cy="143.73" r="22.17"/><polygon class="cls-8" points="533.98 156.17 530.73 189.69 556.69 195.1 563.17 155.09 533.98 156.17"/><path class="cls-10" d="M561,182.12s-6.49,14.06-30.28-1.08L486.4,325.94s59.47,35.69,97.32,8.66l-13-146Z"/><path class="cls-9" d="M535.06,165.9l-20.55-3.24-2.16,14.05S484.23,180,481,190.77l3.24,80s-9.73,17.31-1.08,28.12c0,0-14.06,29.2-3.24,34.6,0,0,24.87-11.89,40-8.65,0,0,8.65-2.16,8.65-8.65S535.06,165.9,535.06,165.9Z"/><path class="cls-9" d="M559.93,168.06l11.9,3.25,1.08,15.14s29.19,18.38,30.28,29.19-21.63,62.72-21.63,62.72,8.65,15.14,5.4,24.88c0,0,14.06,28.11,5.41,35.68,0,0-16.22,4.33-18.38-2.16S552.36,255.66,561,220C561,220,552.36,174.55,559.93,168.06Z"/><path class="cls-7" d="M572.37,203.28H572V192.13a6.45,6.45,0,0,0-6.45-6.45H541.88a6.45,6.45,0,0,0-6.45,6.45h0V253.3a6.45,6.45,0,0,0,6.45,6.45h23.63A6.45,6.45,0,0,0,572,253.3h0V211.22h.41Z"/><path class="cls-8" d="M582.64,247S574,218.89,561,227.54,569.66,260,569.66,260Z"/><path class="cls-8" d="M523.16,226.46s15.14-18.39,22.71-9.73-13,28.11-13,28.11Z"/><path class="cls-9" d="M484.23,189.69s-5.4-1.08-8.65,8.65-15.14,46.5-15.14,53,4.33,32.44,28.12,28.12,51.91-34.61,51.91-34.61l-15.14-22.71L492.89,241.6Z"/><polygon class="cls-11" points="488.91 217.73 493.43 241.06 526.95 221.59 495.59 233.49 488.68 216.33 488.91 217.73"/><polygon class="cls-11" points="584.26 241.06 588.59 244.3 590.75 229.16 584.26 241.06"/><path class="cls-11" d="M483.69,282.15s31.77-8.64,46.7-27.57C530.39,254.58,515.05,280,483.69,282.15Z"/><path class="cls-11" d="M563.72,262.68s6.68,32.74,23.89,33.67C587.61,296.35,567,302.69,563.72,262.68Z"/><path class="cls-9" d="M598.86,211.32s3.24,2.16,5.41,11.89,16.22,46.5,10.81,55.15S601,306.48,582.64,293.5L564.26,260l18.38-17.3,7.57,5.41Z"/><path class="cls-9" d="M527.29,149.36s-18.59-30.14,1.22-31.7a50.57,50.57,0,0,0,19-5.18c6.56-3.34,14.82-5.88,19.22-.74a32.4,32.4,0,0,0,6.65,6.16c3.86,2.56,8.33,6.72,5.85,11.17l-4.05,7.3L569.49,151c1.32-6.3,1.35-11.59-2-14.2,0,0-18.88,8-28.4-6.49C528.41,122.29,525,147.45,527.29,149.36Z"/><circle class="cls-5" cx="553.98" cy="207.53" r="5.41"/></svg>